<svg xmlns="http://www.w3.org/2000/svg" width="512" height="512" viewBox="0 0 512 512" version="1.1">
	<rect width="100%" height="100%" fill="#000000"></rect>
	<path d="M 151 136.591 C 131.504 141.766, 116.325 158.290, 113.009 177.946 C 112.212 182.673, 111.972 198.819, 112.234 230.145 C 112.612 275.216, 112.630 275.560, 115.199 285.050 C 118.092 295.740, 122.845 306.303, 129.127 316 C 134.797 324.754, 153.644 343.311, 163.500 349.846 C 207.971 379.328, 267.878 385.137, 319.462 364.969 C 339.017 357.323, 355.766 346.185, 370.064 331.318 C 383.764 317.074, 391.984 302.850, 396.801 285.050 C 399.370 275.560, 399.388 275.216, 399.766 230.145 C 400.028 198.819, 399.788 182.673, 398.991 177.946 C 394.959 154.041, 372.945 135, 349.339 135 C 323.734 135, 301.996 154.043, 298.936 179.154 C 296.772 196.908, 296.064 200.349, 293.493 205.605 C 287.915 217.006, 275.908 225.739, 262.632 228.050 C 245.235 231.080, 226.245 221.420, 218.507 205.605 C 215.935 200.346, 215.231 196.926, 213.058 179.109 C 209.448 149.515, 179.531 129.018, 151 136.591 M 149.856 146.316 C 134.842 151.434, 124.770 162.995, 121.938 178.360 C 121.228 182.214, 120.988 199.834, 121.239 229.860 C 121.599 272.984, 121.740 275.941, 123.800 283.500 C 141.672 349.084, 230.288 385.516, 308.644 359.495 C 342.077 348.392, 368.448 327.045, 381.522 300.500 C 390.437 282.399, 390.439 282.381, 390.472 226 C 390.500 176.982, 390.478 176.446, 388.257 171 C 374.419 137.065, 327.448 134.818, 311.518 167.328 C 308.509 173.468, 307.863 176.083, 307.028 185.500 C 306.491 191.550, 305.539 198.300, 304.912 200.500 C 298.071 224.502, 273.025 240.796, 248.758 237.030 C 224.379 233.248, 205.091 211.100, 205.015 186.799 C 204.922 157.423, 177.125 137.022, 149.856 146.316" stroke="#ff6ec7" stroke-width="16" stroke-linecap="round" stroke-linejoin="round" fill="#ff6ec7" fill-rule="evenodd"/>
</svg>